<svg width="48" height="48" viewBox="0 0 48 48" fill="none" xmlns="http://www.w3.org/2000/svg">
<g id="1:1">
<path id="Vector" d="M19.7602 11.2188C19.7602 10.9724 19.9623 10.7723 20.2111 10.7723H29.5592C29.8079 10.7723 30.0101 10.9724 30.0101 11.2188C30.0101 11.4651 29.8079 11.6653 29.5592 11.6653H20.2111C19.9623 11.6653 19.7602 11.4651 19.7602 11.2188ZM14.4934 18.1897H29.5786C29.8274 18.1897 30.0295 17.9895 30.0295 17.7432C30.0295 17.4968 29.8274 17.2967 29.5786 17.2967H14.4934C14.2446 17.2967 14.0425 17.4968 14.0425 17.7432C14.0425 17.9895 14.2446 18.1897 14.4934 18.1897ZM25.6645 35.592H17.327C17.0782 35.592 16.8761 35.7921 16.8761 36.0385C16.8761 36.2848 17.0782 36.485 17.327 36.485H25.6645C25.9132 36.485 26.1153 36.2848 26.1153 36.0385C26.1153 35.7921 25.9132 35.592 25.6645 35.592ZM35.4323 36.8507V39.5413C35.4323 40.8539 34.3557 41.9201 33.0302 41.9201H11.0418C9.71633 41.9201 8.63965 40.8539 8.63965 39.5413V14.252C8.63965 14.1326 8.68629 14.021 8.7718 13.9363L16.5768 6.21095C16.6623 6.12627 16.775 6.08008 16.8955 6.08008H33.0302C34.3557 6.08008 35.4323 7.14631 35.4323 8.45889V20.2221C39.1599 21.1844 41.9196 24.5486 41.9196 28.5364C41.9196 32.5242 39.1599 35.8845 35.4323 36.8507ZM10.1789 13.8054H16.4446V7.60437L10.1789 13.8054ZM34.5306 37.0316C34.1108 37.0932 33.6793 37.1278 33.244 37.1278C29.668 37.1278 26.5934 34.9761 25.268 31.9121H14.4934C14.2446 31.9121 14.0425 31.712 14.0425 31.4656C14.0425 31.2193 14.2446 31.0191 14.4934 31.0191H24.9337C24.6927 30.2339 24.5645 29.3986 24.5645 28.5364C24.5645 28.1284 24.5955 27.7319 24.65 27.3393H14.4934C14.2446 27.3393 14.0425 27.1391 14.0425 26.8928C14.0425 26.6464 14.2446 26.4463 14.4934 26.4463H24.8249C25.1786 25.0528 25.8744 23.7941 26.8189 22.7664H14.4934C14.2446 22.7664 14.0425 22.5662 14.0425 22.3199C14.0425 22.0735 14.2446 21.8734 14.4934 21.8734H27.7673C29.2599 20.6686 31.1684 19.9449 33.2401 19.9449C33.6793 19.9449 34.1069 19.9757 34.5267 20.0412V8.45889C34.5267 7.63901 33.8542 6.9731 33.0263 6.9731H17.3425V14.252C17.3425 14.4983 17.1404 14.6985 16.8916 14.6985H9.54142V39.5374C9.54142 40.3573 10.2139 41.0232 11.0418 41.0232H33.0302C33.8581 41.0232 34.5306 40.3573 34.5306 39.5374V37.0316ZM41.0179 28.5364C41.0179 24.2907 37.5313 20.838 33.244 20.838C28.9567 20.838 25.4701 24.2907 25.4701 28.5364C25.4701 32.7821 28.9567 36.2348 33.244 36.2348C37.5313 36.2348 41.0179 32.7821 41.0179 28.5364ZM37.7062 25.203L31.9341 30.919L28.7779 27.7973C28.603 27.6241 28.3154 27.6241 28.1404 27.7973C27.9655 27.9705 27.9655 28.2554 28.1404 28.4286L31.6115 31.8659C31.7009 31.9545 31.8136 31.9968 31.9302 31.9968C32.0468 31.9968 32.1595 31.9545 32.2489 31.8659L38.3398 25.8342C38.5147 25.661 38.5147 25.3762 38.3398 25.203C38.1649 25.0297 37.8811 25.0297 37.7062 25.203Z" fill="#1B1B1B" stroke="#1B1B1B" stroke-width="0.5"/>
</g>
</svg>
