<svg width="48" height="48" viewBox="0 0 48 48" fill="none" xmlns="http://www.w3.org/2000/svg">
<g id="1:1">
<path id="Vector" d="M14.7517 29.4938C14.7348 29.5026 14.718 29.5026 14.6926 29.5114L11.5669 30.3666V39.8092L15.4952 39.9239L27.0098 42.5865L40.3407 35.1276C43.6017 33.3026 42.2415 30.6135 39.0482 31.936L28.7078 36.2032C28.6149 36.2385 28.5135 36.2473 28.4122 36.212L20.8005 33.3819C20.5809 33.3026 20.4626 33.0469 20.5471 32.8176C20.6231 32.5884 20.8681 32.465 21.0793 32.5531L28.5135 35.3216C29.6709 34.5986 30.0849 33.6111 29.0964 32.5002C28.6825 32.033 28.0658 31.6009 27.2548 31.2395L20.0909 28.0302L14.7517 29.4938ZM27.145 20.5096H28.3361L25.3709 17.0711L22.4056 20.5096H23.5968H24.0868C24.3149 20.5096 24.5092 20.7036 24.5092 20.9504V24.768H26.2241V20.9504C26.2241 20.7124 26.41 20.5096 26.6465 20.5096H27.145ZM29.2908 21.3913H27.1534H27.0858V25.2089C27.0858 25.4469 26.9 25.6497 26.6634 25.6497H24.1037C23.8756 25.6497 23.6813 25.4557 23.6813 25.2089V21.3913H23.6137H21.5017C21.0962 21.4001 20.9188 20.9328 21.1553 20.6595L25.0583 16.1277C25.2273 15.9338 25.5145 15.9338 25.6919 16.1277L29.6033 20.6595C29.8399 20.9328 29.654 21.3913 29.2908 21.3913ZM14.1942 28.7355V22.2289H9.83501C9.47175 22.2289 9.2521 21.7528 9.56467 21.453L25.0836 5.30972C25.2442 5.1422 25.5145 5.1422 25.675 5.30972L41.2193 21.4794C41.4897 21.7528 41.2954 22.2289 40.9236 22.2289H36.5645V32.0153L38.7356 31.116C42.9174 29.388 44.9449 33.5494 40.7378 35.9035L27.2717 43.4417C27.1788 43.4946 27.0774 43.5034 26.9844 43.4858L15.3684 40.7879L11.5753 40.6909V41.7048C11.5753 41.9429 11.3894 42.1456 11.1529 42.1456H4.6226C4.3945 42.1456 4.2002 41.9517 4.2002 41.7048V28.2506C4.2002 28.0126 4.38605 27.8098 4.6226 27.8098H11.1445C11.3725 27.8098 11.5669 28.0038 11.5669 28.2506V29.4497L14.1942 28.7355ZM35.7197 32.368V21.9732L25.3793 11.2169L15.039 21.9732V28.5063L20.0148 27.1397C20.1162 27.1133 20.2092 27.1221 20.2936 27.1662L27.5927 30.4283C28.9106 31.019 30.3045 32.0594 30.4819 33.4524C30.5326 33.8404 30.4819 34.2283 30.3214 34.5986L35.7197 32.368ZM10.7221 28.6915H5.045V41.264H10.7221V28.6915ZM32.8558 14.0117L25.3793 6.23547L10.8572 21.3472H14.4476L25.0836 10.2823C25.2442 10.106 25.5145 10.106 25.675 10.2823L36.311 21.3472H39.9014L32.8558 14.0117Z" fill="#1B1B1B" stroke="#1B1B1B" stroke-width="0.3"/>
</g>
</svg>
