<svg width="40" height="40" viewBox="0 0 40 40" fill="none" xmlns="http://www.w3.org/2000/svg">
<g id="noun-discussion-4891666 1">
<g id="Group">
<path id="Vector" d="M24.5673 10.7705H7.14296C6.9815 10.7705 6.85059 10.9013 6.85059 11.0626C6.85059 11.2239 6.9815 11.3546 7.14296 11.3546H24.5673C24.7288 11.3546 24.8597 11.2239 24.8597 11.0626C24.8597 10.9013 24.7288 10.7705 24.5673 10.7705Z" fill="#1B1B1B" stroke="#1B1B1B" stroke-width="0.3"/>
<path id="Vector_2" d="M11.81 7.98769H19.8998C20.0613 7.98769 20.1922 7.85692 20.1922 7.69563C20.1922 7.53434 20.0613 7.40356 19.8998 7.40356H11.81C11.6485 7.40356 11.5176 7.53434 11.5176 7.69563C11.5176 7.85692 11.6485 7.98769 11.81 7.98769Z" fill="#1B1B1B" stroke="#1B1B1B" stroke-width="0.3"/>
<path id="Vector_3" d="M20.5224 14.1375H11.1879C11.0264 14.1375 10.8955 14.2682 10.8955 14.4295C10.8955 14.5908 11.0264 14.7216 11.1879 14.7216H20.5224C20.6839 14.7216 20.8148 14.5908 20.8148 14.4295C20.8148 14.2682 20.6839 14.1375 20.5224 14.1375Z" fill="#1B1B1B" stroke="#1B1B1B" stroke-width="0.3"/>
<path id="Vector_4" d="M24.17 4.76807C21.9454 3.11199 18.9923 2.19995 15.8547 2.19995C12.7171 2.19995 9.76394 3.11199 7.53942 4.76807C5.2891 6.44334 4.0498 8.67872 4.0498 11.0625C4.0498 13.6656 5.54829 16.1071 8.17087 17.7941L6.37994 22.0663C6.33338 22.1773 6.35984 22.3056 6.44668 22.3893C6.50238 22.4429 6.57554 22.4711 6.64973 22.4711C6.69117 22.4711 6.73298 22.4623 6.77224 22.4443L12.8575 19.6368C13.833 19.8282 14.8408 19.9251 15.8547 19.9251C18.9924 19.9251 21.9455 19.0131 24.17 17.357C26.4204 15.6818 27.6597 13.4464 27.6597 11.0625C27.6596 8.67872 26.4203 6.44334 24.17 4.76807ZM15.8547 19.3409C14.847 19.3409 13.8461 19.2416 12.8795 19.0455L7.20977 21.599L8.80591 17.7915C8.86161 17.6587 8.81205 17.5052 8.68925 17.4298C6.11242 15.8483 4.63455 13.5275 4.63455 11.0625C4.63455 6.49774 9.6679 2.78408 15.8547 2.78408C22.0415 2.78408 27.0748 6.49774 27.0748 11.0625C27.0748 15.6273 22.0415 19.3409 15.8547 19.3409Z" fill="#1B1B1B" stroke="#1B1B1B" stroke-width="0.3"/>
<path id="Vector_5" d="M35.4569 27.2993H18.0326C17.8711 27.2993 17.7402 27.4301 17.7402 27.5914C17.7402 27.7527 17.8711 27.8834 18.0326 27.8834H35.4569C35.6184 27.8834 35.7493 27.7527 35.7493 27.5914C35.7493 27.4301 35.6184 27.2993 35.4569 27.2993Z" fill="#1B1B1B" stroke="#1B1B1B" stroke-width="0.3"/>
<path id="Vector_6" d="M22.6996 24.5165H30.7895C30.9509 24.5165 31.0819 24.3857 31.0819 24.2244C31.0819 24.0631 30.9509 23.9324 30.7895 23.9324H22.6996C22.5381 23.9324 22.4072 24.0631 22.4072 24.2244C22.4072 24.3857 22.5381 24.5165 22.6996 24.5165Z" fill="#1B1B1B" stroke="#1B1B1B" stroke-width="0.3"/>
<path id="Vector_7" d="M34.4282 34.3229C37.0508 32.636 38.5493 30.1944 38.5493 27.5914C38.5493 25.2076 37.31 22.9721 35.0597 21.2969C32.8351 19.6408 29.882 18.7288 26.7444 18.7288C23.6067 18.7288 20.6536 19.6408 18.4291 21.2969C16.1787 22.9721 14.9395 25.2076 14.9395 27.5914C14.9395 29.9751 16.1787 32.2106 18.4291 33.8858C20.6537 35.5418 23.6067 36.4539 26.7444 36.4539C27.7583 36.4539 28.7661 36.3569 29.7415 36.1656L35.8269 38.9731C35.8661 38.9912 35.9079 38.9999 35.9494 38.9999C36.0236 38.9999 36.0967 38.9717 36.1524 38.9181C36.2393 38.8344 36.2657 38.7062 36.2192 38.5951L34.4282 34.3229ZM29.7196 35.5743C28.753 35.7704 27.752 35.8698 26.7444 35.8698C20.5576 35.8698 15.5243 32.1561 15.5243 27.5914C15.5243 23.0265 20.5576 19.3129 26.7444 19.3129C32.9313 19.3129 37.9646 23.0265 37.9646 27.5914C37.9646 30.0564 36.4867 32.3772 33.9099 33.9586C33.7871 34.034 33.7376 34.1875 33.7932 34.3203L35.3893 38.1278L29.7196 35.5743Z" fill="#1B1B1B" stroke="#1B1B1B" stroke-width="0.3"/>
</g>
</g>
</svg>
