<svg width="48" height="48" viewBox="0 0 48 48" fill="none" xmlns="http://www.w3.org/2000/svg">
<g id="1:1">
<path id="Vector" d="M32.3731 4.80005H28.2916H18.7562H14.6703C12.9354 4.80005 11.5195 6.21707 11.5195 7.95874V40.0414C11.5195 41.783 12.931 43.2001 14.6703 43.2001H32.3731C34.108 43.2001 35.5195 41.783 35.5195 40.0414V7.95874C35.5195 6.21707 34.108 4.80005 32.3731 4.80005ZM27.4132 6.00211L27.0155 7.01991H20.0279L19.6346 6.00211H27.4132ZM34.3265 40.0457C34.3265 41.125 33.4525 42.0068 32.3731 42.0068H14.6703C13.5953 42.0068 12.7169 41.1294 12.7169 40.0457V7.95874C12.7169 6.87952 13.5909 5.99772 14.6703 5.99772H18.3498L19.0621 7.83151C19.1495 8.05964 19.3724 8.21319 19.6171 8.21319H27.4219C27.6667 8.21319 27.8895 8.06403 27.9769 7.83151L28.6936 5.99772H32.3688C33.4438 5.99772 34.3222 6.87513 34.3222 7.95874V40.0457H34.3265ZM27.1029 40.3265C27.1029 40.6599 26.8364 40.9276 26.5042 40.9276H20.5436C20.2158 40.9276 19.9449 40.6599 19.9449 40.3265C19.9449 39.9931 20.2114 39.7255 20.5436 39.7255H26.4999C26.832 39.7255 27.1029 39.9931 27.1029 40.3265ZM23.5195 25.3491C27.3564 25.3491 30.4766 22.2167 30.4766 18.3649C30.4766 14.513 27.3564 11.3807 23.5195 11.3807C19.6827 11.3807 16.5625 14.513 16.5625 18.3649C16.5669 22.2167 19.687 25.3491 23.5195 25.3491ZM23.5195 12.5827C26.6965 12.5827 29.2792 15.1755 29.2792 18.3649C29.2792 21.5543 26.6965 24.147 23.5195 24.147C20.3425 24.147 17.7599 21.5543 17.7599 18.3649C17.7599 15.1755 20.3469 12.5827 23.5195 12.5827ZM22.4882 20.0056C22.4882 19.6722 22.2216 19.4046 21.8895 19.4046C21.5574 19.4046 21.2908 19.6722 21.2908 20.0056C21.2908 21.0322 21.9857 21.8877 22.9208 22.1509V22.4404C22.9208 22.7739 23.1874 23.0415 23.5195 23.0415C23.8517 23.0415 24.1182 22.7739 24.1182 22.4404V22.1509C25.0534 21.8877 25.7482 21.0278 25.7482 20.0056C25.7482 18.9791 25.0534 18.1236 24.1182 17.8603V15.8862C24.3804 16.0748 24.5508 16.3819 24.5508 16.7285C24.5508 17.0619 24.8174 17.3295 25.1495 17.3295C25.4817 17.3295 25.7482 17.0619 25.7482 16.7285C25.7482 15.7019 25.0534 14.8464 24.1182 14.5832V14.2937C24.1182 13.9602 23.8517 13.6926 23.5195 13.6926C23.1874 13.6926 22.9208 13.9602 22.9208 14.2937V14.5832C21.9857 14.8464 21.2908 15.7063 21.2908 16.7285C21.2908 17.7551 21.9857 18.6105 22.9208 18.8738V20.8479C22.663 20.6593 22.4882 20.3522 22.4882 20.0056ZM24.5552 20.0056C24.5552 20.3522 24.3848 20.6593 24.1226 20.8479V19.1633C24.3804 19.352 24.5552 19.6547 24.5552 20.0056ZM22.4882 16.7285C22.4882 16.3819 22.6586 16.0748 22.9208 15.8862V17.5708C22.663 17.3822 22.4882 17.0751 22.4882 16.7285ZM30.5246 28.2796C30.5246 28.6131 30.2581 28.8807 29.9259 28.8807H17.1175C16.7897 28.8807 16.5188 28.6131 16.5188 28.2796C16.5188 27.9462 16.7854 27.6786 17.1175 27.6786H29.9303C30.2581 27.6786 30.5246 27.9462 30.5246 28.2796ZM30.5246 31.5261C30.5246 31.8595 30.2581 32.1271 29.9259 32.1271H17.1175C16.7897 32.1271 16.5188 31.8595 16.5188 31.5261C16.5188 31.1926 16.7854 30.925 17.1175 30.925H29.9303C30.2581 30.925 30.5246 31.1926 30.5246 31.5261ZM30.5246 34.7681C30.5246 35.1015 30.2581 35.3691 29.9259 35.3691H17.1175C16.7897 35.3691 16.5188 35.1015 16.5188 34.7681C16.5188 34.4347 16.7854 34.1671 17.1175 34.1671H29.9303C30.2581 34.1715 30.5246 34.4391 30.5246 34.7681Z" fill="#1B1B1B"/>
</g>
</svg>
